<?xml version="1.0" standalone="no"?><!DOCTYPE svg PUBLIC "-//W3C//DTD SVG 1.1//EN" "http://www.w3.org/Graphics/SVG/1.1/DTD/svg11.dtd"><svg t="1711250344538" class="icon" viewBox="0 0 1024 1024" version="1.1" xmlns="http://www.w3.org/2000/svg" p-id="2433" xmlns:xlink="http://www.w3.org/1999/xlink" width="200" height="200"><path d="M877.9 598.7l-60-416.2c-3.3-22.9-23.2-40.2-46.3-40.2H194.1c-25.9 0-47 21.1-47 47v416.3c0 25.9 21.1 47 47 47h143.7c7.5 0 14.1 4.5 16.8 11.4L429 851.2c7.3 18.4 25 29.6 43.6 29.6 5.8 0 11.6-1.1 17.3-3.3l28.8-11.4c30.6-12.1 54.6-35.5 67.6-65.7 13-30.2 13.5-63.7 1.4-94.2l-21.3-53.6h265c13.7 0 26.7-5.9 35.6-16.3 8.9-10.4 12.9-24.1 10.9-37.6zM211.1 206.3H259v382.3h-47.9V206.3zM472 588.5l56.1 141.2c12.1 30.3-2.8 64.8-33.1 76.8l-12.9 5.1-68-171.3c-12.5-31.5-42.4-51.8-76.3-51.8H323V206.3h433.7l55.1 382.3H472z" fill="#231815" p-id="2434"></path></svg>